<?xml version="1.0" encoding="utf-8" standalone="no"?>
<!DOCTYPE svg PUBLIC "-//W3C//DTD SVG 1.1//EN"
  "http://www.w3.org/Graphics/SVG/1.1/DTD/svg11.dtd">
<svg xmlns:xlink="http://www.w3.org/1999/xlink" width="568.8pt" height="856.8pt" viewBox="0 0 568.8 856.8" xmlns="http://www.w3.org/2000/svg" version="1.1">
 <metadata>
  <rdf:RDF xmlns:dc="http://purl.org/dc/elements/1.1/" xmlns:cc="http://creativecommons.org/ns#" xmlns:rdf="http://www.w3.org/1999/02/22-rdf-syntax-ns#">
   <cc:Work>
    <dc:type rdf:resource="http://purl.org/dc/dcmitype/StillImage"/>
    <dc:date>2025-09-30T13:43:44.552443</dc:date>
    <dc:format>image/svg+xml</dc:format>
    <dc:creator>
     <cc:Agent>
      <dc:title>Matplotlib v3.10.0, https://matplotlib.org/</dc:title>
     </cc:Agent>
    </dc:creator>
   </cc:Work>
  </rdf:RDF>
 </metadata>
 <defs>
  <style type="text/css">*{stroke-linejoin: round; stroke-linecap: butt}</style>
 </defs>
 <g id="figure_1">
  <g id="patch_1">
   <path d="M 0 856.8 
L 568.8 856.8 
L 568.8 0 
L 0 0 
z
" style="fill: #ffffff"/>
  </g>
  <g id="axes_1">
   <g id="patch_2">
    <path d="M 201.24 175.68 
L 367.56 175.68 
Q 395.28 175.68 395.28 133.56 
L 395.28 49.32 
Q 395.28 7.2 367.56 7.2 
L 201.24 7.2 
Q 173.52 7.2 173.52 49.32 
L 173.52 133.56 
Q 173.52 175.68 201.24 175.68 
z
" clip-path="url(#pe36195cd87)" style="fill: #87ceeb; stroke: #000000; stroke-width: 2; stroke-linejoin: miter"/>
   </g>
   <g id="patch_3">
    <path d="M 90.36 344.16 
L 256.68 344.16 
Q 284.4 344.16 284.4 302.04 
L 284.4 217.8 
Q 284.4 175.68 256.68 175.68 
L 90.36 175.68 
Q 62.64 175.68 62.64 217.8 
L 62.64 302.04 
Q 62.64 344.16 90.36 344.16 
z
" clip-path="url(#pe36195cd87)" style="fill: #87ceeb; stroke: #000000; stroke-width: 2; stroke-linejoin: miter"/>
   </g>
   <g id="patch_4">
    <path d="M 312.12 344.16 
L 478.44 344.16 
Q 506.16 344.16 506.16 302.04 
L 506.16 217.8 
Q 506.16 175.68 478.44 175.68 
L 312.12 175.68 
Q 284.4 175.68 284.4 217.8 
L 284.4 302.04 
Q 284.4 344.16 312.12 344.16 
z
" clip-path="url(#pe36195cd87)" style="fill: #87ceeb; stroke: #000000; stroke-width: 2; stroke-linejoin: miter"/>
   </g>
   <g id="patch_5">
    <path d="M 201.24 512.64 
L 367.56 512.64 
Q 395.28 512.64 395.28 470.52 
L 395.28 386.28 
Q 395.28 344.16 367.56 344.16 
L 201.24 344.16 
Q 173.52 344.16 173.52 386.28 
L 173.52 470.52 
Q 173.52 512.64 201.24 512.64 
z
" clip-path="url(#pe36195cd87)" style="fill: #87ceeb; stroke: #000000; stroke-width: 2; stroke-linejoin: miter"/>
   </g>
   <g id="patch_6">
    <path d="M 201.24 681.12 
L 367.56 681.12 
Q 395.28 681.12 395.28 639 
L 395.28 554.76 
Q 395.28 512.64 367.56 512.64 
L 201.24 512.64 
Q 173.52 512.64 173.52 554.76 
L 173.52 639 
Q 173.52 681.12 201.24 681.12 
z
" clip-path="url(#pe36195cd87)" style="fill: #87ceeb; stroke: #000000; stroke-width: 2; stroke-linejoin: miter"/>
   </g>
   <g id="patch_7">
    <path d="M 201.24 849.6 
L 367.56 849.6 
Q 395.28 849.6 395.28 807.48 
L 395.28 723.24 
Q 395.28 681.12 367.56 681.12 
L 201.24 681.12 
Q 173.52 681.12 173.52 723.24 
L 173.52 807.48 
Q 173.52 849.6 201.24 849.6 
z
" clip-path="url(#pe36195cd87)" style="fill: #87ceeb; stroke: #000000; stroke-width: 2; stroke-linejoin: miter"/>
   </g>
   <g id="text_1">
    <!-- Hamiltonian Simulation -->
    <g transform="translate(218.159375 88.600469) scale(0.1 -0.1)">
     <defs>
      <path id="DejaVuSans-Bold-48" d="M 588 4666 
L 1791 4666 
L 1791 2888 
L 3566 2888 
L 3566 4666 
L 4769 4666 
L 4769 0 
L 3566 0 
L 3566 1978 
L 1791 1978 
L 1791 0 
L 588 0 
L 588 4666 
z
" transform="scale(0.015625)"/>
      <path id="DejaVuSans-Bold-61" d="M 2106 1575 
Q 1756 1575 1579 1456 
Q 1403 1338 1403 1106 
Q 1403 894 1545 773 
Q 1688 653 1941 653 
Q 2256 653 2472 879 
Q 2688 1106 2688 1447 
L 2688 1575 
L 2106 1575 
z
M 3816 1997 
L 3816 0 
L 2688 0 
L 2688 519 
Q 2463 200 2181 54 
Q 1900 -91 1497 -91 
Q 953 -91 614 226 
Q 275 544 275 1050 
Q 275 1666 698 1953 
Q 1122 2241 2028 2241 
L 2688 2241 
L 2688 2328 
Q 2688 2594 2478 2717 
Q 2269 2841 1825 2841 
Q 1466 2841 1156 2769 
Q 847 2697 581 2553 
L 581 3406 
Q 941 3494 1303 3539 
Q 1666 3584 2028 3584 
Q 2975 3584 3395 3211 
Q 3816 2838 3816 1997 
z
" transform="scale(0.015625)"/>
      <path id="DejaVuSans-Bold-6d" d="M 3781 2919 
Q 3994 3244 4286 3414 
Q 4578 3584 4928 3584 
Q 5531 3584 5847 3212 
Q 6163 2841 6163 2131 
L 6163 0 
L 5038 0 
L 5038 1825 
Q 5041 1866 5042 1909 
Q 5044 1953 5044 2034 
Q 5044 2406 4934 2573 
Q 4825 2741 4581 2741 
Q 4263 2741 4089 2478 
Q 3916 2216 3909 1719 
L 3909 0 
L 2784 0 
L 2784 1825 
Q 2784 2406 2684 2573 
Q 2584 2741 2328 2741 
Q 2006 2741 1831 2477 
Q 1656 2213 1656 1722 
L 1656 0 
L 531 0 
L 531 3500 
L 1656 3500 
L 1656 2988 
Q 1863 3284 2130 3434 
Q 2397 3584 2719 3584 
Q 3081 3584 3359 3409 
Q 3638 3234 3781 2919 
z
" transform="scale(0.015625)"/>
      <path id="DejaVuSans-Bold-69" d="M 538 3500 
L 1656 3500 
L 1656 0 
L 538 0 
L 538 3500 
z
M 538 4863 
L 1656 4863 
L 1656 3950 
L 538 3950 
L 538 4863 
z
" transform="scale(0.015625)"/>
      <path id="DejaVuSans-Bold-6c" d="M 538 4863 
L 1656 4863 
L 1656 0 
L 538 0 
L 538 4863 
z
" transform="scale(0.015625)"/>
      <path id="DejaVuSans-Bold-74" d="M 1759 4494 
L 1759 3500 
L 2913 3500 
L 2913 2700 
L 1759 2700 
L 1759 1216 
Q 1759 972 1856 886 
Q 1953 800 2241 800 
L 2816 800 
L 2816 0 
L 1856 0 
Q 1194 0 917 276 
Q 641 553 641 1216 
L 641 2700 
L 84 2700 
L 84 3500 
L 641 3500 
L 641 4494 
L 1759 4494 
z
" transform="scale(0.015625)"/>
      <path id="DejaVuSans-Bold-6f" d="M 2203 2784 
Q 1831 2784 1636 2517 
Q 1441 2250 1441 1747 
Q 1441 1244 1636 976 
Q 1831 709 2203 709 
Q 2569 709 2762 976 
Q 2956 1244 2956 1747 
Q 2956 2250 2762 2517 
Q 2569 2784 2203 2784 
z
M 2203 3584 
Q 3106 3584 3614 3096 
Q 4122 2609 4122 1747 
Q 4122 884 3614 396 
Q 3106 -91 2203 -91 
Q 1297 -91 786 396 
Q 275 884 275 1747 
Q 275 2609 786 3096 
Q 1297 3584 2203 3584 
z
" transform="scale(0.015625)"/>
      <path id="DejaVuSans-Bold-6e" d="M 4056 2131 
L 4056 0 
L 2931 0 
L 2931 347 
L 2931 1631 
Q 2931 2084 2911 2256 
Q 2891 2428 2841 2509 
Q 2775 2619 2662 2680 
Q 2550 2741 2406 2741 
Q 2056 2741 1856 2470 
Q 1656 2200 1656 1722 
L 1656 0 
L 538 0 
L 538 3500 
L 1656 3500 
L 1656 2988 
Q 1909 3294 2193 3439 
Q 2478 3584 2822 3584 
Q 3428 3584 3742 3212 
Q 4056 2841 4056 2131 
z
" transform="scale(0.015625)"/>
      <path id="DejaVuSans-Bold-20" transform="scale(0.015625)"/>
      <path id="DejaVuSans-Bold-53" d="M 3834 4519 
L 3834 3531 
Q 3450 3703 3084 3790 
Q 2719 3878 2394 3878 
Q 1963 3878 1756 3759 
Q 1550 3641 1550 3391 
Q 1550 3203 1689 3098 
Q 1828 2994 2194 2919 
L 2706 2816 
Q 3484 2659 3812 2340 
Q 4141 2022 4141 1434 
Q 4141 663 3683 286 
Q 3225 -91 2284 -91 
Q 1841 -91 1394 -6 
Q 947 78 500 244 
L 500 1259 
Q 947 1022 1364 901 
Q 1781 781 2169 781 
Q 2563 781 2772 912 
Q 2981 1044 2981 1288 
Q 2981 1506 2839 1625 
Q 2697 1744 2272 1838 
L 1806 1941 
Q 1106 2091 782 2419 
Q 459 2747 459 3303 
Q 459 4000 909 4375 
Q 1359 4750 2203 4750 
Q 2588 4750 2994 4692 
Q 3400 4634 3834 4519 
z
" transform="scale(0.015625)"/>
      <path id="DejaVuSans-Bold-75" d="M 500 1363 
L 500 3500 
L 1625 3500 
L 1625 3150 
Q 1625 2866 1622 2436 
Q 1619 2006 1619 1863 
Q 1619 1441 1641 1255 
Q 1663 1069 1716 984 
Q 1784 875 1895 815 
Q 2006 756 2150 756 
Q 2500 756 2700 1025 
Q 2900 1294 2900 1772 
L 2900 3500 
L 4019 3500 
L 4019 0 
L 2900 0 
L 2900 506 
Q 2647 200 2364 54 
Q 2081 -91 1741 -91 
Q 1134 -91 817 281 
Q 500 653 500 1363 
z
" transform="scale(0.015625)"/>
     </defs>
     <use xlink:href="#DejaVuSans-Bold-48"/>
     <use xlink:href="#DejaVuSans-Bold-61" transform="translate(83.691406 0)"/>
     <use xlink:href="#DejaVuSans-Bold-6d" transform="translate(151.171875 0)"/>
     <use xlink:href="#DejaVuSans-Bold-69" transform="translate(255.371094 0)"/>
     <use xlink:href="#DejaVuSans-Bold-6c" transform="translate(289.648438 0)"/>
     <use xlink:href="#DejaVuSans-Bold-74" transform="translate(323.925781 0)"/>
     <use xlink:href="#DejaVuSans-Bold-6f" transform="translate(371.728516 0)"/>
     <use xlink:href="#DejaVuSans-Bold-6e" transform="translate(440.429688 0)"/>
     <use xlink:href="#DejaVuSans-Bold-69" transform="translate(511.621094 0)"/>
     <use xlink:href="#DejaVuSans-Bold-61" transform="translate(545.898438 0)"/>
     <use xlink:href="#DejaVuSans-Bold-6e" transform="translate(613.378906 0)"/>
     <use xlink:href="#DejaVuSans-Bold-20" transform="translate(684.570312 0)"/>
     <use xlink:href="#DejaVuSans-Bold-53" transform="translate(719.384766 0)"/>
     <use xlink:href="#DejaVuSans-Bold-69" transform="translate(791.40625 0)"/>
     <use xlink:href="#DejaVuSans-Bold-6d" transform="translate(825.683594 0)"/>
     <use xlink:href="#DejaVuSans-Bold-75" transform="translate(929.882812 0)"/>
     <use xlink:href="#DejaVuSans-Bold-6c" transform="translate(1001.074219 0)"/>
     <use xlink:href="#DejaVuSans-Bold-61" transform="translate(1035.351562 0)"/>
     <use xlink:href="#DejaVuSans-Bold-74" transform="translate(1102.832031 0)"/>
     <use xlink:href="#DejaVuSans-Bold-69" transform="translate(1150.634766 0)"/>
     <use xlink:href="#DejaVuSans-Bold-6f" transform="translate(1184.912109 0)"/>
     <use xlink:href="#DejaVuSans-Bold-6e" transform="translate(1253.613281 0)"/>
    </g>
    <!-- (J, DMI, K, Hex, T...) -->
    <g transform="translate(229.396094 99.798281) scale(0.1 -0.1)">
     <defs>
      <path id="DejaVuSans-Bold-28" d="M 2413 -844 
L 1484 -844 
Q 1006 -72 778 623 
Q 550 1319 550 2003 
Q 550 2688 779 3389 
Q 1009 4091 1484 4856 
L 2413 4856 
Q 2013 4116 1813 3408 
Q 1613 2700 1613 2009 
Q 1613 1319 1811 609 
Q 2009 -100 2413 -844 
z
" transform="scale(0.015625)"/>
      <path id="DejaVuSans-Bold-4a" d="M 588 4666 
L 1791 4666 
L 1791 453 
Q 1791 -419 1317 -850 
Q 844 -1281 -116 -1281 
L -359 -1281 
L -359 -372 
L -172 -372 
Q 203 -372 395 -162 
Q 588 47 588 453 
L 588 4666 
z
" transform="scale(0.015625)"/>
      <path id="DejaVuSans-Bold-2c" d="M 653 1209 
L 1778 1209 
L 1778 256 
L 1006 -909 
L 341 -909 
L 653 256 
L 653 1209 
z
" transform="scale(0.015625)"/>
      <path id="DejaVuSans-Bold-44" d="M 1791 3756 
L 1791 909 
L 2222 909 
Q 2959 909 3348 1275 
Q 3738 1641 3738 2338 
Q 3738 3031 3350 3393 
Q 2963 3756 2222 3756 
L 1791 3756 
z
M 588 4666 
L 1856 4666 
Q 2919 4666 3439 4514 
Q 3959 4363 4331 4000 
Q 4659 3684 4818 3271 
Q 4978 2859 4978 2338 
Q 4978 1809 4818 1395 
Q 4659 981 4331 666 
Q 3956 303 3431 151 
Q 2906 0 1856 0 
L 588 0 
L 588 4666 
z
" transform="scale(0.015625)"/>
      <path id="DejaVuSans-Bold-4d" d="M 588 4666 
L 2119 4666 
L 3181 2169 
L 4250 4666 
L 5778 4666 
L 5778 0 
L 4641 0 
L 4641 3413 
L 3566 897 
L 2803 897 
L 1728 3413 
L 1728 0 
L 588 0 
L 588 4666 
z
" transform="scale(0.015625)"/>
      <path id="DejaVuSans-Bold-49" d="M 588 4666 
L 1791 4666 
L 1791 0 
L 588 0 
L 588 4666 
z
" transform="scale(0.015625)"/>
      <path id="DejaVuSans-Bold-4b" d="M 588 4666 
L 1791 4666 
L 1791 2963 
L 3525 4666 
L 4922 4666 
L 2675 2456 
L 5153 0 
L 3647 0 
L 1791 1838 
L 1791 0 
L 588 0 
L 588 4666 
z
" transform="scale(0.015625)"/>
      <path id="DejaVuSans-Bold-65" d="M 4031 1759 
L 4031 1441 
L 1416 1441 
Q 1456 1047 1700 850 
Q 1944 653 2381 653 
Q 2734 653 3104 758 
Q 3475 863 3866 1075 
L 3866 213 
Q 3469 63 3072 -14 
Q 2675 -91 2278 -91 
Q 1328 -91 801 392 
Q 275 875 275 1747 
Q 275 2603 792 3093 
Q 1309 3584 2216 3584 
Q 3041 3584 3536 3087 
Q 4031 2591 4031 1759 
z
M 2881 2131 
Q 2881 2450 2695 2645 
Q 2509 2841 2209 2841 
Q 1884 2841 1681 2658 
Q 1478 2475 1428 2131 
L 2881 2131 
z
" transform="scale(0.015625)"/>
      <path id="DejaVuSans-Bold-78" d="M 1422 1791 
L 159 3500 
L 1344 3500 
L 2059 2463 
L 2784 3500 
L 3969 3500 
L 2706 1797 
L 4031 0 
L 2847 0 
L 2059 1106 
L 1281 0 
L 97 0 
L 1422 1791 
z
" transform="scale(0.015625)"/>
      <path id="DejaVuSans-Bold-54" d="M 31 4666 
L 4331 4666 
L 4331 3756 
L 2784 3756 
L 2784 0 
L 1581 0 
L 1581 3756 
L 31 3756 
L 31 4666 
z
" transform="scale(0.015625)"/>
      <path id="DejaVuSans-Bold-2e" d="M 653 1209 
L 1778 1209 
L 1778 0 
L 653 0 
L 653 1209 
z
" transform="scale(0.015625)"/>
      <path id="DejaVuSans-Bold-29" d="M 513 -844 
Q 913 -100 1113 609 
Q 1313 1319 1313 2009 
Q 1313 2700 1113 3408 
Q 913 4116 513 4856 
L 1441 4856 
Q 1916 4091 2145 3389 
Q 2375 2688 2375 2003 
Q 2375 1319 2147 623 
Q 1919 -72 1441 -844 
L 513 -844 
z
" transform="scale(0.015625)"/>
     </defs>
     <use xlink:href="#DejaVuSans-Bold-28"/>
     <use xlink:href="#DejaVuSans-Bold-4a" transform="translate(45.703125 0)"/>
     <use xlink:href="#DejaVuSans-Bold-2c" transform="translate(82.910156 0)"/>
     <use xlink:href="#DejaVuSans-Bold-20" transform="translate(120.898438 0)"/>
     <use xlink:href="#DejaVuSans-Bold-44" transform="translate(155.712891 0)"/>
     <use xlink:href="#DejaVuSans-Bold-4d" transform="translate(238.720703 0)"/>
     <use xlink:href="#DejaVuSans-Bold-49" transform="translate(338.232422 0)"/>
     <use xlink:href="#DejaVuSans-Bold-2c" transform="translate(375.439453 0)"/>
     <use xlink:href="#DejaVuSans-Bold-20" transform="translate(413.427734 0)"/>
     <use xlink:href="#DejaVuSans-Bold-4b" transform="translate(448.242188 0)"/>
     <use xlink:href="#DejaVuSans-Bold-2c" transform="translate(525.732422 0)"/>
     <use xlink:href="#DejaVuSans-Bold-20" transform="translate(563.720703 0)"/>
     <use xlink:href="#DejaVuSans-Bold-48" transform="translate(598.535156 0)"/>
     <use xlink:href="#DejaVuSans-Bold-65" transform="translate(682.226562 0)"/>
     <use xlink:href="#DejaVuSans-Bold-78" transform="translate(750.048828 0)"/>
     <use xlink:href="#DejaVuSans-Bold-2c" transform="translate(814.550781 0)"/>
     <use xlink:href="#DejaVuSans-Bold-20" transform="translate(852.539062 0)"/>
     <use xlink:href="#DejaVuSans-Bold-54" transform="translate(887.353516 0)"/>
     <use xlink:href="#DejaVuSans-Bold-2e" transform="translate(940.441406 0)"/>
     <use xlink:href="#DejaVuSans-Bold-2e" transform="translate(978.429688 0)"/>
     <use xlink:href="#DejaVuSans-Bold-2e" transform="translate(1016.417969 0)"/>
     <use xlink:href="#DejaVuSans-Bold-29" transform="translate(1054.40625 0)"/>
    </g>
   </g>
   <g id="text_2">
    <!-- Geometry File -->
    <g transform="translate(133.897344 257.041406) scale(0.1 -0.1)">
     <defs>
      <path id="DejaVuSans-Bold-47" d="M 4781 347 
Q 4331 128 3847 18 
Q 3363 -91 2847 -91 
Q 1681 -91 1000 561 
Q 319 1213 319 2328 
Q 319 3456 1012 4103 
Q 1706 4750 2913 4750 
Q 3378 4750 3804 4662 
Q 4231 4575 4609 4403 
L 4609 3438 
Q 4219 3659 3833 3768 
Q 3447 3878 3059 3878 
Q 2341 3878 1952 3476 
Q 1563 3075 1563 2328 
Q 1563 1588 1938 1184 
Q 2313 781 3003 781 
Q 3191 781 3352 804 
Q 3513 828 3641 878 
L 3641 1784 
L 2906 1784 
L 2906 2591 
L 4781 2591 
L 4781 347 
z
" transform="scale(0.015625)"/>
      <path id="DejaVuSans-Bold-72" d="M 3138 2547 
Q 2991 2616 2845 2648 
Q 2700 2681 2553 2681 
Q 2122 2681 1889 2404 
Q 1656 2128 1656 1613 
L 1656 0 
L 538 0 
L 538 3500 
L 1656 3500 
L 1656 2925 
Q 1872 3269 2151 3426 
Q 2431 3584 2822 3584 
Q 2878 3584 2943 3579 
Q 3009 3575 3134 3559 
L 3138 2547 
z
" transform="scale(0.015625)"/>
      <path id="DejaVuSans-Bold-79" d="M 78 3500 
L 1197 3500 
L 2138 1125 
L 2938 3500 
L 4056 3500 
L 2584 -331 
Q 2363 -916 2067 -1148 
Q 1772 -1381 1288 -1381 
L 641 -1381 
L 641 -647 
L 991 -647 
Q 1275 -647 1404 -556 
Q 1534 -466 1606 -231 
L 1638 -134 
L 78 3500 
z
" transform="scale(0.015625)"/>
      <path id="DejaVuSans-Bold-46" d="M 588 4666 
L 3834 4666 
L 3834 3756 
L 1791 3756 
L 1791 2888 
L 3713 2888 
L 3713 1978 
L 1791 1978 
L 1791 0 
L 588 0 
L 588 4666 
z
" transform="scale(0.015625)"/>
     </defs>
     <use xlink:href="#DejaVuSans-Bold-47"/>
     <use xlink:href="#DejaVuSans-Bold-65" transform="translate(82.080078 0)"/>
     <use xlink:href="#DejaVuSans-Bold-6f" transform="translate(149.902344 0)"/>
     <use xlink:href="#DejaVuSans-Bold-6d" transform="translate(218.603516 0)"/>
     <use xlink:href="#DejaVuSans-Bold-65" transform="translate(322.802734 0)"/>
     <use xlink:href="#DejaVuSans-Bold-74" transform="translate(390.625 0)"/>
     <use xlink:href="#DejaVuSans-Bold-72" transform="translate(438.427734 0)"/>
     <use xlink:href="#DejaVuSans-Bold-79" transform="translate(487.744141 0)"/>
     <use xlink:href="#DejaVuSans-Bold-20" transform="translate(552.929688 0)"/>
     <use xlink:href="#DejaVuSans-Bold-46" transform="translate(587.744141 0)"/>
     <use xlink:href="#DejaVuSans-Bold-69" transform="translate(656.054688 0)"/>
     <use xlink:href="#DejaVuSans-Bold-6c" transform="translate(690.332031 0)"/>
     <use xlink:href="#DejaVuSans-Bold-65" transform="translate(724.609375 0)"/>
    </g>
    <!-- (Sample.dat) -->
    <g transform="translate(136.837969 268.317344) scale(0.1 -0.1)">
     <defs>
      <path id="DejaVuSans-Bold-70" d="M 1656 506 
L 1656 -1331 
L 538 -1331 
L 538 3500 
L 1656 3500 
L 1656 2988 
Q 1888 3294 2169 3439 
Q 2450 3584 2816 3584 
Q 3463 3584 3878 3070 
Q 4294 2556 4294 1747 
Q 4294 938 3878 423 
Q 3463 -91 2816 -91 
Q 2450 -91 2169 54 
Q 1888 200 1656 506 
z
M 2400 2772 
Q 2041 2772 1848 2508 
Q 1656 2244 1656 1747 
Q 1656 1250 1848 986 
Q 2041 722 2400 722 
Q 2759 722 2948 984 
Q 3138 1247 3138 1747 
Q 3138 2247 2948 2509 
Q 2759 2772 2400 2772 
z
" transform="scale(0.015625)"/>
      <path id="DejaVuSans-Bold-64" d="M 2919 2988 
L 2919 4863 
L 4044 4863 
L 4044 0 
L 2919 0 
L 2919 506 
Q 2688 197 2409 53 
Q 2131 -91 1766 -91 
Q 1119 -91 703 423 
Q 288 938 288 1747 
Q 288 2556 703 3070 
Q 1119 3584 1766 3584 
Q 2128 3584 2408 3439 
Q 2688 3294 2919 2988 
z
M 2181 722 
Q 2541 722 2730 984 
Q 2919 1247 2919 1747 
Q 2919 2247 2730 2509 
Q 2541 2772 2181 2772 
Q 1825 2772 1636 2509 
Q 1447 2247 1447 1747 
Q 1447 1247 1636 984 
Q 1825 722 2181 722 
z
" transform="scale(0.015625)"/>
     </defs>
     <use xlink:href="#DejaVuSans-Bold-28"/>
     <use xlink:href="#DejaVuSans-Bold-53" transform="translate(45.703125 0)"/>
     <use xlink:href="#DejaVuSans-Bold-61" transform="translate(117.724609 0)"/>
     <use xlink:href="#DejaVuSans-Bold-6d" transform="translate(185.205078 0)"/>
     <use xlink:href="#DejaVuSans-Bold-70" transform="translate(289.404297 0)"/>
     <use xlink:href="#DejaVuSans-Bold-6c" transform="translate(360.986328 0)"/>
     <use xlink:href="#DejaVuSans-Bold-65" transform="translate(395.263672 0)"/>
     <use xlink:href="#DejaVuSans-Bold-2e" transform="translate(463.085938 0)"/>
     <use xlink:href="#DejaVuSans-Bold-64" transform="translate(501.074219 0)"/>
     <use xlink:href="#DejaVuSans-Bold-61" transform="translate(572.65625 0)"/>
     <use xlink:href="#DejaVuSans-Bold-74" transform="translate(640.136719 0)"/>
     <use xlink:href="#DejaVuSans-Bold-29" transform="translate(687.939453 0)"/>
    </g>
   </g>
   <g id="text_3">
    <!-- Spin States -->
    <g transform="translate(362.964375 256.941406) scale(0.1 -0.1)">
     <defs>
      <path id="DejaVuSans-Bold-73" d="M 3272 3391 
L 3272 2541 
Q 2913 2691 2578 2766 
Q 2244 2841 1947 2841 
Q 1628 2841 1473 2761 
Q 1319 2681 1319 2516 
Q 1319 2381 1436 2309 
Q 1553 2238 1856 2203 
L 2053 2175 
Q 2913 2066 3209 1816 
Q 3506 1566 3506 1031 
Q 3506 472 3093 190 
Q 2681 -91 1863 -91 
Q 1516 -91 1145 -36 
Q 775 19 384 128 
L 384 978 
Q 719 816 1070 734 
Q 1422 653 1784 653 
Q 2113 653 2278 743 
Q 2444 834 2444 1013 
Q 2444 1163 2330 1236 
Q 2216 1309 1875 1350 
L 1678 1375 
Q 931 1469 631 1722 
Q 331 1975 331 2491 
Q 331 3047 712 3315 
Q 1094 3584 1881 3584 
Q 2191 3584 2531 3537 
Q 2872 3491 3272 3391 
z
" transform="scale(0.015625)"/>
     </defs>
     <use xlink:href="#DejaVuSans-Bold-53"/>
     <use xlink:href="#DejaVuSans-Bold-70" transform="translate(72.021484 0)"/>
     <use xlink:href="#DejaVuSans-Bold-69" transform="translate(143.603516 0)"/>
     <use xlink:href="#DejaVuSans-Bold-6e" transform="translate(177.880859 0)"/>
     <use xlink:href="#DejaVuSans-Bold-20" transform="translate(249.072266 0)"/>
     <use xlink:href="#DejaVuSans-Bold-53" transform="translate(283.886719 0)"/>
     <use xlink:href="#DejaVuSans-Bold-74" transform="translate(355.908203 0)"/>
     <use xlink:href="#DejaVuSans-Bold-61" transform="translate(403.710938 0)"/>
     <use xlink:href="#DejaVuSans-Bold-74" transform="translate(471.191406 0)"/>
     <use xlink:href="#DejaVuSans-Bold-65" transform="translate(518.994141 0)"/>
     <use xlink:href="#DejaVuSans-Bold-73" transform="translate(586.816406 0)"/>
    </g>
    <!-- (StatesX_YY.dat) -->
    <g transform="translate(348.575312 268.139219) scale(0.1 -0.1)">
     <defs>
      <path id="DejaVuSans-Bold-58" d="M 3188 2381 
L 4806 0 
L 3553 0 
L 2463 1594 
L 1381 0 
L 122 0 
L 1741 2381 
L 184 4666 
L 1441 4666 
L 2463 3163 
L 3481 4666 
L 4744 4666 
L 3188 2381 
z
" transform="scale(0.015625)"/>
      <path id="DejaVuSans-Bold-5f" d="M 3200 -916 
L 3200 -1509 
L 0 -1509 
L 0 -916 
L 3200 -916 
z
" transform="scale(0.015625)"/>
      <path id="DejaVuSans-Bold-59" d="M -63 4666 
L 1253 4666 
L 2316 3003 
L 3378 4666 
L 4697 4666 
L 2919 1966 
L 2919 0 
L 1716 0 
L 1716 1966 
L -63 4666 
z
" transform="scale(0.015625)"/>
     </defs>
     <use xlink:href="#DejaVuSans-Bold-28"/>
     <use xlink:href="#DejaVuSans-Bold-53" transform="translate(45.703125 0)"/>
     <use xlink:href="#DejaVuSans-Bold-74" transform="translate(117.724609 0)"/>
     <use xlink:href="#DejaVuSans-Bold-61" transform="translate(165.527344 0)"/>
     <use xlink:href="#DejaVuSans-Bold-74" transform="translate(233.007812 0)"/>
     <use xlink:href="#DejaVuSans-Bold-65" transform="translate(280.810547 0)"/>
     <use xlink:href="#DejaVuSans-Bold-73" transform="translate(348.632812 0)"/>
     <use xlink:href="#DejaVuSans-Bold-58" transform="translate(408.154297 0)"/>
     <use xlink:href="#DejaVuSans-Bold-5f" transform="translate(485.253906 0)"/>
     <use xlink:href="#DejaVuSans-Bold-59" transform="translate(535.253906 0)"/>
     <use xlink:href="#DejaVuSans-Bold-59" transform="translate(607.666016 0)"/>
     <use xlink:href="#DejaVuSans-Bold-2e" transform="translate(663.578125 0)"/>
     <use xlink:href="#DejaVuSans-Bold-64" transform="translate(701.566406 0)"/>
     <use xlink:href="#DejaVuSans-Bold-61" transform="translate(773.148438 0)"/>
     <use xlink:href="#DejaVuSans-Bold-74" transform="translate(840.628906 0)"/>
     <use xlink:href="#DejaVuSans-Bold-29" transform="translate(888.431641 0)"/>
    </g>
   </g>
   <g id="text_4">
    <!-- Mapping Coordinates + Spins -->
    <g transform="translate(201.210156 425.482344) scale(0.1 -0.1)">
     <defs>
      <path id="DejaVuSans-Bold-67" d="M 2919 594 
Q 2688 288 2409 144 
Q 2131 0 1766 0 
Q 1125 0 706 504 
Q 288 1009 288 1791 
Q 288 2575 706 3076 
Q 1125 3578 1766 3578 
Q 2131 3578 2409 3434 
Q 2688 3291 2919 2981 
L 2919 3500 
L 4044 3500 
L 4044 353 
Q 4044 -491 3511 -936 
Q 2978 -1381 1966 -1381 
Q 1638 -1381 1331 -1331 
Q 1025 -1281 716 -1178 
L 716 -306 
Q 1009 -475 1290 -558 
Q 1572 -641 1856 -641 
Q 2406 -641 2662 -400 
Q 2919 -159 2919 353 
L 2919 594 
z
M 2181 2772 
Q 1834 2772 1640 2515 
Q 1447 2259 1447 1791 
Q 1447 1309 1634 1061 
Q 1822 813 2181 813 
Q 2531 813 2725 1069 
Q 2919 1325 2919 1791 
Q 2919 2259 2725 2515 
Q 2531 2772 2181 2772 
z
" transform="scale(0.015625)"/>
      <path id="DejaVuSans-Bold-43" d="M 4288 256 
Q 3956 84 3597 -3 
Q 3238 -91 2847 -91 
Q 1681 -91 1000 561 
Q 319 1213 319 2328 
Q 319 3447 1000 4098 
Q 1681 4750 2847 4750 
Q 3238 4750 3597 4662 
Q 3956 4575 4288 4403 
L 4288 3438 
Q 3953 3666 3628 3772 
Q 3303 3878 2944 3878 
Q 2300 3878 1931 3465 
Q 1563 3053 1563 2328 
Q 1563 1606 1931 1193 
Q 2300 781 2944 781 
Q 3303 781 3628 887 
Q 3953 994 4288 1222 
L 4288 256 
z
" transform="scale(0.015625)"/>
      <path id="DejaVuSans-Bold-2b" d="M 3053 4013 
L 3053 2375 
L 4684 2375 
L 4684 1638 
L 3053 1638 
L 3053 0 
L 2309 0 
L 2309 1638 
L 678 1638 
L 678 2375 
L 2309 2375 
L 2309 4013 
L 3053 4013 
z
" transform="scale(0.015625)"/>
     </defs>
     <use xlink:href="#DejaVuSans-Bold-4d"/>
     <use xlink:href="#DejaVuSans-Bold-61" transform="translate(99.511719 0)"/>
     <use xlink:href="#DejaVuSans-Bold-70" transform="translate(166.992188 0)"/>
     <use xlink:href="#DejaVuSans-Bold-70" transform="translate(238.574219 0)"/>
     <use xlink:href="#DejaVuSans-Bold-69" transform="translate(310.15625 0)"/>
     <use xlink:href="#DejaVuSans-Bold-6e" transform="translate(344.433594 0)"/>
     <use xlink:href="#DejaVuSans-Bold-67" transform="translate(415.625 0)"/>
     <use xlink:href="#DejaVuSans-Bold-20" transform="translate(487.207031 0)"/>
     <use xlink:href="#DejaVuSans-Bold-43" transform="translate(522.021484 0)"/>
     <use xlink:href="#DejaVuSans-Bold-6f" transform="translate(595.410156 0)"/>
     <use xlink:href="#DejaVuSans-Bold-6f" transform="translate(664.111328 0)"/>
     <use xlink:href="#DejaVuSans-Bold-72" transform="translate(732.8125 0)"/>
     <use xlink:href="#DejaVuSans-Bold-64" transform="translate(782.128906 0)"/>
     <use xlink:href="#DejaVuSans-Bold-69" transform="translate(853.710938 0)"/>
     <use xlink:href="#DejaVuSans-Bold-6e" transform="translate(887.988281 0)"/>
     <use xlink:href="#DejaVuSans-Bold-61" transform="translate(959.179688 0)"/>
     <use xlink:href="#DejaVuSans-Bold-74" transform="translate(1026.660156 0)"/>
     <use xlink:href="#DejaVuSans-Bold-65" transform="translate(1074.462891 0)"/>
     <use xlink:href="#DejaVuSans-Bold-73" transform="translate(1142.285156 0)"/>
     <use xlink:href="#DejaVuSans-Bold-20" transform="translate(1201.806641 0)"/>
     <use xlink:href="#DejaVuSans-Bold-2b" transform="translate(1236.621094 0)"/>
     <use xlink:href="#DejaVuSans-Bold-20" transform="translate(1320.410156 0)"/>
     <use xlink:href="#DejaVuSans-Bold-53" transform="translate(1355.224609 0)"/>
     <use xlink:href="#DejaVuSans-Bold-70" transform="translate(1427.246094 0)"/>
     <use xlink:href="#DejaVuSans-Bold-69" transform="translate(1498.828125 0)"/>
     <use xlink:href="#DejaVuSans-Bold-6e" transform="translate(1533.105469 0)"/>
     <use xlink:href="#DejaVuSans-Bold-73" transform="translate(1604.296875 0)"/>
    </g>
    <!-- (Using Sample.dat mask) -->
    <g transform="translate(213.463281 436.758281) scale(0.1 -0.1)">
     <defs>
      <path id="DejaVuSans-Bold-55" d="M 588 4666 
L 1791 4666 
L 1791 1869 
Q 1791 1291 1980 1042 
Q 2169 794 2597 794 
Q 3028 794 3217 1042 
Q 3406 1291 3406 1869 
L 3406 4666 
L 4609 4666 
L 4609 1869 
Q 4609 878 4112 393 
Q 3616 -91 2597 -91 
Q 1581 -91 1084 393 
Q 588 878 588 1869 
L 588 4666 
z
" transform="scale(0.015625)"/>
      <path id="DejaVuSans-Bold-6b" d="M 538 4863 
L 1656 4863 
L 1656 2216 
L 2944 3500 
L 4244 3500 
L 2534 1894 
L 4378 0 
L 3022 0 
L 1656 1459 
L 1656 0 
L 538 0 
L 538 4863 
z
" transform="scale(0.015625)"/>
     </defs>
     <use xlink:href="#DejaVuSans-Bold-28"/>
     <use xlink:href="#DejaVuSans-Bold-55" transform="translate(45.703125 0)"/>
     <use xlink:href="#DejaVuSans-Bold-73" transform="translate(126.904297 0)"/>
     <use xlink:href="#DejaVuSans-Bold-69" transform="translate(186.425781 0)"/>
     <use xlink:href="#DejaVuSans-Bold-6e" transform="translate(220.703125 0)"/>
     <use xlink:href="#DejaVuSans-Bold-67" transform="translate(291.894531 0)"/>
     <use xlink:href="#DejaVuSans-Bold-20" transform="translate(363.476562 0)"/>
     <use xlink:href="#DejaVuSans-Bold-53" transform="translate(398.291016 0)"/>
     <use xlink:href="#DejaVuSans-Bold-61" transform="translate(470.3125 0)"/>
     <use xlink:href="#DejaVuSans-Bold-6d" transform="translate(537.792969 0)"/>
     <use xlink:href="#DejaVuSans-Bold-70" transform="translate(641.992188 0)"/>
     <use xlink:href="#DejaVuSans-Bold-6c" transform="translate(713.574219 0)"/>
     <use xlink:href="#DejaVuSans-Bold-65" transform="translate(747.851562 0)"/>
     <use xlink:href="#DejaVuSans-Bold-2e" transform="translate(815.673828 0)"/>
     <use xlink:href="#DejaVuSans-Bold-64" transform="translate(853.662109 0)"/>
     <use xlink:href="#DejaVuSans-Bold-61" transform="translate(925.244141 0)"/>
     <use xlink:href="#DejaVuSans-Bold-74" transform="translate(992.724609 0)"/>
     <use xlink:href="#DejaVuSans-Bold-20" transform="translate(1040.527344 0)"/>
     <use xlink:href="#DejaVuSans-Bold-6d" transform="translate(1075.341797 0)"/>
     <use xlink:href="#DejaVuSans-Bold-61" transform="translate(1179.541016 0)"/>
     <use xlink:href="#DejaVuSans-Bold-73" transform="translate(1247.021484 0)"/>
     <use xlink:href="#DejaVuSans-Bold-6b" transform="translate(1306.542969 0)"/>
     <use xlink:href="#DejaVuSans-Bold-29" transform="translate(1373.046875 0)"/>
    </g>
   </g>
   <g id="text_5">
    <!-- Image Generation -->
    <g transform="translate(233.860156 594.001406) scale(0.1 -0.1)">
     <use xlink:href="#DejaVuSans-Bold-49"/>
     <use xlink:href="#DejaVuSans-Bold-6d" transform="translate(37.207031 0)"/>
     <use xlink:href="#DejaVuSans-Bold-61" transform="translate(141.40625 0)"/>
     <use xlink:href="#DejaVuSans-Bold-67" transform="translate(208.886719 0)"/>
     <use xlink:href="#DejaVuSans-Bold-65" transform="translate(280.46875 0)"/>
     <use xlink:href="#DejaVuSans-Bold-20" transform="translate(348.291016 0)"/>
     <use xlink:href="#DejaVuSans-Bold-47" transform="translate(383.105469 0)"/>
     <use xlink:href="#DejaVuSans-Bold-65" transform="translate(465.185547 0)"/>
     <use xlink:href="#DejaVuSans-Bold-6e" transform="translate(533.007812 0)"/>
     <use xlink:href="#DejaVuSans-Bold-65" transform="translate(604.199219 0)"/>
     <use xlink:href="#DejaVuSans-Bold-72" transform="translate(672.021484 0)"/>
     <use xlink:href="#DejaVuSans-Bold-61" transform="translate(721.337891 0)"/>
     <use xlink:href="#DejaVuSans-Bold-74" transform="translate(788.818359 0)"/>
     <use xlink:href="#DejaVuSans-Bold-69" transform="translate(836.621094 0)"/>
     <use xlink:href="#DejaVuSans-Bold-6f" transform="translate(870.898438 0)"/>
     <use xlink:href="#DejaVuSans-Bold-6e" transform="translate(939.599609 0)"/>
    </g>
    <!-- (Colormap, 39x39 px) -->
    <g transform="translate(223.621875 605.277344) scale(0.1 -0.1)">
     <defs>
      <path id="DejaVuSans-Bold-33" d="M 2981 2516 
Q 3453 2394 3698 2092 
Q 3944 1791 3944 1325 
Q 3944 631 3412 270 
Q 2881 -91 1863 -91 
Q 1503 -91 1142 -33 
Q 781 25 428 141 
L 428 1069 
Q 766 900 1098 814 
Q 1431 728 1753 728 
Q 2231 728 2486 893 
Q 2741 1059 2741 1369 
Q 2741 1688 2480 1852 
Q 2219 2016 1709 2016 
L 1228 2016 
L 1228 2791 
L 1734 2791 
Q 2188 2791 2409 2933 
Q 2631 3075 2631 3366 
Q 2631 3634 2415 3781 
Q 2200 3928 1806 3928 
Q 1516 3928 1219 3862 
Q 922 3797 628 3669 
L 628 4550 
Q 984 4650 1334 4700 
Q 1684 4750 2022 4750 
Q 2931 4750 3382 4451 
Q 3834 4153 3834 3553 
Q 3834 3144 3618 2883 
Q 3403 2622 2981 2516 
z
" transform="scale(0.015625)"/>
      <path id="DejaVuSans-Bold-39" d="M 641 103 
L 641 966 
Q 928 831 1190 764 
Q 1453 697 1709 697 
Q 2247 697 2547 995 
Q 2847 1294 2900 1881 
Q 2688 1725 2447 1647 
Q 2206 1569 1925 1569 
Q 1209 1569 770 1986 
Q 331 2403 331 3084 
Q 331 3838 820 4291 
Q 1309 4744 2131 4744 
Q 3044 4744 3544 4128 
Q 4044 3513 4044 2388 
Q 4044 1231 3459 570 
Q 2875 -91 1856 -91 
Q 1528 -91 1228 -42 
Q 928 6 641 103 
z
M 2125 2350 
Q 2441 2350 2600 2554 
Q 2759 2759 2759 3169 
Q 2759 3575 2600 3781 
Q 2441 3988 2125 3988 
Q 1809 3988 1650 3781 
Q 1491 3575 1491 3169 
Q 1491 2759 1650 2554 
Q 1809 2350 2125 2350 
z
" transform="scale(0.015625)"/>
     </defs>
     <use xlink:href="#DejaVuSans-Bold-28"/>
     <use xlink:href="#DejaVuSans-Bold-43" transform="translate(45.703125 0)"/>
     <use xlink:href="#DejaVuSans-Bold-6f" transform="translate(119.091797 0)"/>
     <use xlink:href="#DejaVuSans-Bold-6c" transform="translate(187.792969 0)"/>
     <use xlink:href="#DejaVuSans-Bold-6f" transform="translate(222.070312 0)"/>
     <use xlink:href="#DejaVuSans-Bold-72" transform="translate(290.771484 0)"/>
     <use xlink:href="#DejaVuSans-Bold-6d" transform="translate(340.087891 0)"/>
     <use xlink:href="#DejaVuSans-Bold-61" transform="translate(444.287109 0)"/>
     <use xlink:href="#DejaVuSans-Bold-70" transform="translate(511.767578 0)"/>
     <use xlink:href="#DejaVuSans-Bold-2c" transform="translate(583.349609 0)"/>
     <use xlink:href="#DejaVuSans-Bold-20" transform="translate(621.337891 0)"/>
     <use xlink:href="#DejaVuSans-Bold-33" transform="translate(656.152344 0)"/>
     <use xlink:href="#DejaVuSans-Bold-39" transform="translate(725.732422 0)"/>
     <use xlink:href="#DejaVuSans-Bold-78" transform="translate(795.3125 0)"/>
     <use xlink:href="#DejaVuSans-Bold-33" transform="translate(859.814453 0)"/>
     <use xlink:href="#DejaVuSans-Bold-39" transform="translate(929.394531 0)"/>
     <use xlink:href="#DejaVuSans-Bold-20" transform="translate(998.974609 0)"/>
     <use xlink:href="#DejaVuSans-Bold-70" transform="translate(1033.789062 0)"/>
     <use xlink:href="#DejaVuSans-Bold-78" transform="translate(1105.371094 0)"/>
     <use xlink:href="#DejaVuSans-Bold-29" transform="translate(1169.873047 0)"/>
    </g>
   </g>
   <g id="text_6">
    <!-- Final Dataset -->
    <g transform="translate(246.835937 762.481406) scale(0.1 -0.1)">
     <use xlink:href="#DejaVuSans-Bold-46"/>
     <use xlink:href="#DejaVuSans-Bold-69" transform="translate(68.310547 0)"/>
     <use xlink:href="#DejaVuSans-Bold-6e" transform="translate(102.587891 0)"/>
     <use xlink:href="#DejaVuSans-Bold-61" transform="translate(173.779297 0)"/>
     <use xlink:href="#DejaVuSans-Bold-6c" transform="translate(241.259766 0)"/>
     <use xlink:href="#DejaVuSans-Bold-20" transform="translate(275.537109 0)"/>
     <use xlink:href="#DejaVuSans-Bold-44" transform="translate(310.351562 0)"/>
     <use xlink:href="#DejaVuSans-Bold-61" transform="translate(393.359375 0)"/>
     <use xlink:href="#DejaVuSans-Bold-74" transform="translate(460.839844 0)"/>
     <use xlink:href="#DejaVuSans-Bold-61" transform="translate(508.642578 0)"/>
     <use xlink:href="#DejaVuSans-Bold-73" transform="translate(576.123047 0)"/>
     <use xlink:href="#DejaVuSans-Bold-65" transform="translate(635.644531 0)"/>
     <use xlink:href="#DejaVuSans-Bold-74" transform="translate(703.466797 0)"/>
    </g>
    <!-- NumPy arrays (X, y) -->
    <g transform="translate(227.864062 773.679219) scale(0.1 -0.1)">
     <defs>
      <path id="DejaVuSans-Bold-4e" d="M 588 4666 
L 1931 4666 
L 3628 1466 
L 3628 4666 
L 4769 4666 
L 4769 0 
L 3425 0 
L 1728 3200 
L 1728 0 
L 588 0 
L 588 4666 
z
" transform="scale(0.015625)"/>
      <path id="DejaVuSans-Bold-50" d="M 588 4666 
L 2584 4666 
Q 3475 4666 3951 4270 
Q 4428 3875 4428 3144 
Q 4428 2409 3951 2014 
Q 3475 1619 2584 1619 
L 1791 1619 
L 1791 0 
L 588 0 
L 588 4666 
z
M 1791 3794 
L 1791 2491 
L 2456 2491 
Q 2806 2491 2997 2661 
Q 3188 2831 3188 3144 
Q 3188 3456 2997 3625 
Q 2806 3794 2456 3794 
L 1791 3794 
z
" transform="scale(0.015625)"/>
     </defs>
     <use xlink:href="#DejaVuSans-Bold-4e"/>
     <use xlink:href="#DejaVuSans-Bold-75" transform="translate(83.691406 0)"/>
     <use xlink:href="#DejaVuSans-Bold-6d" transform="translate(154.882812 0)"/>
     <use xlink:href="#DejaVuSans-Bold-50" transform="translate(259.082031 0)"/>
     <use xlink:href="#DejaVuSans-Bold-79" transform="translate(334.248047 0)"/>
     <use xlink:href="#DejaVuSans-Bold-20" transform="translate(399.433594 0)"/>
     <use xlink:href="#DejaVuSans-Bold-61" transform="translate(434.248047 0)"/>
     <use xlink:href="#DejaVuSans-Bold-72" transform="translate(501.728516 0)"/>
     <use xlink:href="#DejaVuSans-Bold-72" transform="translate(551.044922 0)"/>
     <use xlink:href="#DejaVuSans-Bold-61" transform="translate(600.361328 0)"/>
     <use xlink:href="#DejaVuSans-Bold-79" transform="translate(664.716797 0)"/>
     <use xlink:href="#DejaVuSans-Bold-73" transform="translate(729.902344 0)"/>
     <use xlink:href="#DejaVuSans-Bold-20" transform="translate(789.423828 0)"/>
     <use xlink:href="#DejaVuSans-Bold-28" transform="translate(824.238281 0)"/>
     <use xlink:href="#DejaVuSans-Bold-58" transform="translate(869.941406 0)"/>
     <use xlink:href="#DejaVuSans-Bold-2c" transform="translate(947.041016 0)"/>
     <use xlink:href="#DejaVuSans-Bold-20" transform="translate(985.029297 0)"/>
     <use xlink:href="#DejaVuSans-Bold-79" transform="translate(1019.84375 0)"/>
     <use xlink:href="#DejaVuSans-Bold-29" transform="translate(1085.029297 0)"/>
    </g>
   </g>
   <g id="patch_8">
    <path d="M 282.806235 134.770847 
Q 228.958551 175.681101 176.891363 215.23864 
" style="fill: none; stroke: #000000; stroke-width: 2; stroke-linecap: round"/>
    <path d="M 181.286314 214.411355 
L 176.891363 215.23864 
L 178.866506 211.226308 
" style="fill: none; stroke: #000000; stroke-width: 2; stroke-linecap: round"/>
   </g>
   <g id="patch_9">
    <path d="M 285.993765 134.770847 
Q 339.841449 175.681101 391.908637 215.23864 
" style="fill: none; stroke: #000000; stroke-width: 2; stroke-linecap: round"/>
    <path d="M 389.933494 211.226308 
L 391.908637 215.23864 
L 387.513686 214.411355 
" style="fill: none; stroke: #000000; stroke-width: 2; stroke-linecap: round"/>
   </g>
   <g id="patch_10">
    <path d="M 175.113765 303.250847 
Q 228.961449 344.161101 281.028637 383.71864 
" style="fill: none; stroke: #000000; stroke-width: 2; stroke-linecap: round"/>
    <path d="M 279.053494 379.706308 
L 281.028637 383.71864 
L 276.633686 382.891355 
" style="fill: none; stroke: #000000; stroke-width: 2; stroke-linecap: round"/>
   </g>
   <g id="patch_11">
    <path d="M 393.686235 303.250847 
Q 339.838551 344.161101 287.771363 383.71864 
" style="fill: none; stroke: #000000; stroke-width: 2; stroke-linecap: round"/>
    <path d="M 292.166314 382.891355 
L 287.771363 383.71864 
L 289.746506 379.706308 
" style="fill: none; stroke: #000000; stroke-width: 2; stroke-linecap: round"/>
   </g>
   <g id="patch_12">
    <path d="M 284.4 472.517512 
Q 284.4 512.638584 284.4 550.523588 
" style="fill: none; stroke: #000000; stroke-width: 2; stroke-linecap: round"/>
    <path d="M 286.4 546.523588 
L 284.4 550.523588 
L 282.4 546.523588 
" style="fill: none; stroke: #000000; stroke-width: 2; stroke-linecap: round"/>
   </g>
   <g id="patch_13">
    <path d="M 284.4 640.997512 
Q 284.4 681.118584 284.4 719.003588 
" style="fill: none; stroke: #000000; stroke-width: 2; stroke-linecap: round"/>
    <path d="M 286.4 715.003588 
L 284.4 719.003588 
L 282.4 715.003588 
" style="fill: none; stroke: #000000; stroke-width: 2; stroke-linecap: round"/>
   </g>
  </g>
 </g>
 <defs>
  <clipPath id="pe36195cd87">
   <rect x="7.2" y="7.2" width="554.4" height="842.4"/>
  </clipPath>
 </defs>
</svg>
